<?xml version="1.0" ?><svg data-name="Layer 3" id="Layer_3" viewBox="0 0 24 24" xmlns="http://www.w3.org/2000/svg"><title/><path d="M21,5a.5.5,0,0,0-.5.5v11A1.5017,1.5017,0,0,1,19,18H3a.5.5,0,0,0-.5.5v1A2.5023,2.5023,0,0,0,5,22H21a2.5023,2.5023,0,0,0,2.5-2.5V7.5A2.5023,2.5023,0,0,0,21,5Zm1.5,14.5A1.5017,1.5017,0,0,1,21,21H5a1.5017,1.5017,0,0,1-1.5-1.5V19H19a2.5023,2.5023,0,0,0,2.5-2.5V6.0859A1.5017,1.5017,0,0,1,22.5,7.5Z"/><path d="M19,2H3A2.5023,2.5023,0,0,0,.5,4.5v12A2.5023,2.5023,0,0,0,3,19H19a2.5023,2.5023,0,0,0,2.5-2.5V4.5A2.5023,2.5023,0,0,0,19,2Zm1.5,14.5A1.5017,1.5017,0,0,1,19,18H3a1.5017,1.5017,0,0,1-1.5-1.5V4.5A1.5017,1.5017,0,0,1,3,3H19a1.5017,1.5017,0,0,1,1.5,1.5Z"/><path d="M9.7236,10.2461a2.6875,2.6875,0,1,0-4.4472,0A4.0063,4.0063,0,0,0,3.5,13.5625v.875a.5.5,0,0,0,.5.5h7a.5.5,0,0,0,.5-.5v-.875A4.0063,4.0063,0,0,0,9.7236,10.2461ZM10.5,13.9375h-6v-.375a3.0059,3.0059,0,0,1,1.7637-2.7256.5.5,0,0,0,.124-.8291A1.6643,1.6643,0,0,1,5.8125,8.75a1.6875,1.6875,0,0,1,3.375,0,1.6643,1.6643,0,0,1-.5752,1.2578.5.5,0,0,0,.124.8291A3.0059,3.0059,0,0,1,10.5,13.5625Z"/><path d="M18,12.9375H13a.5.5,0,0,0,0,1h5a.5.5,0,0,0,0-1Z"/><path d="M18,10.9375H13a.5.5,0,0,0,0,1h5a.5.5,0,0,0,0-1Z"/><path d="M18,8.9375H13a.5.5,0,0,0,0,1h5a.5.5,0,0,0,0-1Z"/></svg>