<?xml version="1.0" ?><!DOCTYPE svg  PUBLIC '-//W3C//DTD SVG 1.1//EN'  'http://www.w3.org/Graphics/SVG/1.1/DTD/svg11.dtd'><svg enable-background="new 0 0 800 800" height="800px" id="Layer_1" version="1.1" viewBox="0 0 800 800" width="800px" xml:space="preserve" xmlns="http://www.w3.org/2000/svg" xmlns:xlink="http://www.w3.org/1999/xlink"><g><path d="M296.863,585.896C139.69,660.134,40.364,555.044,35.987,550.292c-5.309-5.836-14.342-6.267-20.177-0.956   c-5.844,5.309-6.266,14.35-0.965,20.186c0.87,0.94,66.241,71.048,173.379,71.048c35.875,0,76.454-7.876,120.835-28.828   c120.898-57.097,235.22-27.567,271.287,15.689c5.046,6.06,14.055,6.888,20.122,1.834c6.059-5.055,6.872-14.063,1.817-20.122   C561.898,560.688,436.894,519.774,296.863,585.896z" fill="#4D4D4D"/><path d="M747.253,440.993v-32.989c23.854-5.82,41.615-27.376,41.615-53.016c0-25.606-17.762-47.163-41.615-52.999   v-37.374c20.386-8.084,34.185-27.759,34.185-50.624c0-30.087-24.474-54.562-54.554-54.562c-25.151,0-46.374,17.092-52.672,40.275   h-28.245c-6.291-23.183-27.521-40.275-52.665-40.275c-25.152,0-46.382,17.092-52.673,40.275h-28.246   c-6.288-23.183-27.521-40.275-52.672-40.275c-25.145,0-46.374,17.092-52.664,40.275H378.8   c-6.29-23.183-27.519-40.275-52.672-40.275c-30.087,0-54.562,24.475-54.562,54.562c0,25.702,17.842,47.292,41.79,53.063v34.902   c-23.948,5.756-41.79,27.361-41.79,53.031c0,25.703,17.842,47.291,41.79,53.064v8.673c-5.484,2.279-10.969,4.656-16.501,7.271   C139.523,498.313,40.149,392.92,35.972,388.361c-5.318-5.82-14.334-6.235-20.162-0.941c-5.844,5.309-6.266,14.35-0.965,20.186   c0.87,0.957,66.241,71.063,173.379,71.063c28.094,0,59.123-4.941,92.558-17.107c-5.732,8.642-9.216,18.878-9.216,29.991   c0,30.088,24.475,54.563,54.562,54.563c24.451,0,45.203-16.024,52.09-38.379h29.41c6.879,22.354,27.64,38.379,52.082,38.379   s45.202-16.024,52.092-38.379h29.409c6.879,22.354,27.639,38.379,52.09,38.379c24.442,0,45.194-16.024,52.083-38.379h29.41   c6.879,22.354,27.639,38.379,52.089,38.379c30.08,0,54.554-24.475,54.554-54.563C781.438,469.119,767.399,449.188,747.253,440.993z    M726.884,517.542c-13.888,0-25.271-10.874-25.917-24.762c-0.352-7.621-6.634-13.616-14.271-13.616h-53.214   c-7.63,0-13.913,5.995-14.271,13.616c-0.646,13.888-12.03,24.762-25.91,24.762c-13.889,0-25.271-10.874-25.919-24.762   c-0.35-7.621-6.632-13.616-14.27-13.616h-53.215c-7.629,0-13.911,5.995-14.27,13.616c-0.646,13.888-12.03,24.762-25.918,24.762   c-13.887,0-25.264-10.874-25.909-24.762c-0.353-7.621-6.634-13.616-14.271-13.616h-53.213c-7.63,0-13.912,5.995-14.271,13.616   c-0.645,13.888-12.03,24.762-25.917,24.762c-14.334,0-25.989-11.655-25.989-25.989s11.647-25.988,25.941-25.988   c0,0,0.845,0.047,0.989,0.063c3.906,0.144,7.661-1.292,10.468-3.986c2.806-2.678,4.393-6.409,4.393-10.3v-15.004   c108.23-38.059,205.643-10.124,238.417,29.194c5.046,6.059,14.055,6.872,20.122,1.818c6.059-5.055,6.872-14.063,1.817-20.122   C566.3,404.05,463.075,366.931,341.93,406.154v-10.954c0-3.89-1.587-7.606-4.393-10.301c-2.807-2.693-6.578-4.209-10.468-3.969   c-0.127,0-0.805,0.047-0.941,0.063c-14.334,0-25.989-11.67-25.989-26.005c0-14.318,11.639-25.957,26.069-25.957   c0.088-0.032,0.75,0.032,0.861,0.032c3.827,0.127,7.661-1.276,10.468-3.97c2.798-2.695,4.393-6.41,4.393-10.3v-60.589   c0-3.875-1.579-7.574-4.353-10.269c-2.663-2.583-6.235-4.018-9.934-4.018c-0.327,0-1.18,0.047-1.515,0.08   c-14.334,0-25.989-11.672-25.989-26.005c0-14.335,11.655-25.989,25.989-25.989c14.334,0,25.998,11.654,25.998,25.989   c0,7.892,6.402,14.286,14.287,14.286h53.022c7.885,0,14.286-6.394,14.286-14.286c0-14.335,11.656-25.989,25.99-25.989   s25.998,11.654,25.998,25.989c0,7.892,6.402,14.286,14.285,14.286h53.023c7.885,0,14.287-6.394,14.287-14.286   c0-14.335,11.655-25.989,25.997-25.989c14.326,0,25.989,11.654,25.989,25.989c0,7.892,6.402,14.286,14.286,14.286h53.023   c7.893,0,14.285-6.394,14.285-14.286c0-14.335,11.664-25.989,25.998-25.989c14.327,0,25.981,11.654,25.981,25.989   c0,12.723-9.471,23.74-22.042,25.655c-6.977,1.068-12.143,7.063-12.143,14.126v61.02c0,3.842,1.563,7.541,4.321,10.236   c2.766,2.678,6.528,4.098,10.356,4.034l0.947-0.048c14.335,0,25.99,11.656,25.99,25.974c0,14.335-11.655,26.005-25.727,26.005   c-0.183-0.015-0.9-0.063-1.085-0.063c-3.93-0.127-7.644,1.307-10.434,4.001c-2.791,2.678-4.37,6.394-4.37,10.269v56.571   c0,7.063,5.166,13.075,12.143,14.127c12.571,1.913,22.042,12.946,22.042,25.654C752.865,505.887,741.211,517.542,726.884,517.542z" fill="#4D4D4D"/></g></svg>